# xmcd
#
# Track frame offsets:
#	150
#	13418
#	31376
#	45281
#	62246
#	77589
#	88664
#	110506
#	128215
#	142758
#
# Disc length: 2377 seconds
#
# Revision: 0
# Processed by: cddbd v1.5.2PL0 Copyright (c) Steve Scherf et al.
# Submitted via: EasyCDDAExtractor 16.0.1.1
#
DISCID=7c09470a
DTITLE=Cookies 'n' Beans - Tales From A Trailor Trash Soul
DYEAR=2007
DGENRE=Country
TTITLE0=Train Train
TTITLE1=Jolene
TTITLE2=I Lost It
TTITLE3=Together Again
TTITLE4=Can't Let Go
TTITLE5=The Pain Of Loving You
TTITLE6=Killing The Blues
TTITLE7=Drunkel Angel
TTITLE8=Juanita
TTITLE9=Sin Wagon
EXTD=
EXTT0=
EXTT1=
EXTT2=
EXTT3=
EXTT4=
EXTT5=
EXTT6=
EXTT7=
EXTT8=
EXTT9=
PLAYORDER=
